<svg xmlns="http://www.w3.org/2000/svg" id="_001-coin" width="69.18" height="63.626" viewBox="0 0 69.18 63.626">
    <defs>
        <linearGradient id="linear-gradient" x1=".5" x2=".5" y2="1" gradientUnits="objectBoundingBox">
            <stop offset="0" stop-color="#374757"/>
            <stop offset="1" stop-color="#7594af"/>
        </linearGradient>
        <style>
            .cls-1{fill:url(#linear-gradient)}
        </style>
    </defs>
    <g id="Group_1755" transform="translate(13.39 7.834)">
        <ellipse id="Ellipse_118" cx="18.935" cy="8.933" class="cls-1" rx="18.935" ry="8.933"/>
        <path id="Path_2200" d="M31.928 29.139c-8.562 0-15.472-2.294-18.87-5.878l.033 2.734c0 4.943 9.755 7.611 18.935 7.611s18.935-2.668 18.935-7.625l-.031-2.865c-3.347 3.665-10.326 6.024-19 6.024z" class="cls-1" transform="translate(-12.993 -9.039)"/>
        <path id="Path_2201" d="M29.525 35.66c2.081 3.874 9.373 6.663 18.318 6.663 10.618 0 18.935-3.924 18.935-8.933 0-4.455-6.583-8.045-15.51-8.786l.015 1.176c0 7.82-13.802 9.977-21.758 9.88z" class="cls-1" transform="translate(-11.086 -8.867)"/>
        <path id="Path_2202" d="M66.9 37.088c-3.347 3.666-10.322 6.025-19 6.025-8.562 0-15.473-2.294-18.872-5.878l.035 2.752c0 4.933 9.755 7.593 18.935 7.593s18.935-2.662 18.935-7.609z" class="cls-1" transform="translate(-11.144 -7.421)"/>
        <path id="Path_2203" d="M31.935 56.341c8.978 0 16.291-2.808 18.34-6.7-7.833.065-21.584-2.075-21.584-9.819l-.014-1.222C19.668 39.316 13 42.92 13 47.4c0 5.01 8.318 8.939 18.935 8.939z" class="cls-1" transform="translate(-13 -7.246)"/>
        <path id="Path_2204" d="M31.929 57.125c-8.562 0-15.473-2.294-18.872-5.878L13.092 54c0 4.932 9.755 7.593 18.935 7.593s18.935-2.661 18.935-7.607l-.031-2.886c-3.348 3.664-10.331 6.025-19.002 6.025z" class="cls-1" transform="translate(-12.993 -5.799)"/>
    </g>
    <path id="Path_2205" fill="#fff" d="M27.891 39.684a18.969 18.969 0 1 0-15.838 0C6.46 40.361 1 41.86 1 44.787v6.074c0 4.012 11.923 5.084 18.969 5.084s18.969-1.071 18.969-5.084v-6.074c0-2.927-5.46-4.425-11.046-5.1zM3.232 22.471a16.737 16.737 0 1 1 16.737 16.737A16.737 16.737 0 0 1 3.232 22.471zm16.737 18.968c10.871 0 16.737 2.376 16.737 3.347s-5.866 3.347-16.737 3.347-16.737-2.375-16.737-3.346 5.868-3.348 16.737-3.348zm0 12.274c-10.337 0-16.307-1.866-16.737-2.852v-3.236c3.873 2.1 11.894 2.74 16.737 2.74s12.87-.637 16.737-2.746V50.8c-.43 1.047-6.401 2.913-16.737 2.913z" transform="translate(-1 -3.479)"/>
    <path id="Path_2206" fill="#1896de" d="M19.741 20.323v-6.041a3.952 3.952 0 0 1 1.357.684A1.116 1.116 0 0 0 22.6 13.32a6.2 6.2 0 0 0-2.862-1.336v-1.368a1.116 1.116 0 0 0-2.232 0v1.344a4.909 4.909 0 0 0-4.306 4.046 4.285 4.285 0 0 0 1.4 4.223 12.62 12.62 0 0 0 2.908 1.608v7.412a5.159 5.159 0 0 1-3.178-1.044 1.116 1.116 0 1 0-1.222 1.868 7.364 7.364 0 0 0 4.4 1.408v1.451a1.116 1.116 0 0 0 2.232 0V31.3a5.9 5.9 0 0 0 4.384-4.763c.552-3.29-1.294-5.06-4.384-6.21zm-3.762-1.85a2.082 2.082 0 0 1-.582-2.054 2.618 2.618 0 0 1 2.113-2.176v5.146a8.47 8.47 0 0 1-1.531-.916zm5.945 7.69a3.73 3.73 0 0 1-2.183 2.8V22.7a2.964 2.964 0 0 1 2.183 3.467z" transform="translate(.344 -2.782)"/>
</svg>
