<svg height="512" viewBox="0 0 60 60" width="512" xmlns="http://www.w3.org/2000/svg"><g id="Page-1" fill="none" fill-rule="evenodd"><g id="012---Flameproof-Fabric" fill="rgb(0,0,0)" fill-rule="nonzero"><path id="Shape" d="m60 47c0-1.6568542-1.3431458-3-3-3h-6v-6h2c.3879065-.0001454.7407342-.2246105.9052432-.5759056.1645089-.3512952.111017-.7660368-.1372432-1.0640944l-5-6c-.1959066-.2177862-.4750662-.3421563-.768-.3421563s-.5720934.1243701-.768.3421563l-5 6c-.2482602.2980576-.3017521.7127992-.1372432 1.0640944.164509.3512951.5173367.5757602.9052432.5759056h2v6h-12v-2h2c.3879065-.0001454.7407342-.2246105.9052432-.5759056.1645089-.3512952.111017-.7660368-.1372432-1.0640944l-5-6c-.1959066-.2177862-.4750662-.3421563-.768-.3421563s-.5720934.1243701-.768.3421563l-5 6c-.2482602.2980576-.3017521.7127992-.1372432 1.0640944.164509.3512951.5173367.5757602.9052432.5759056h2v2h-12v-6h2c.3879065-.0001454.7407342-.2246105.9052432-.5759056.1645089-.3512952.111017-.7660368-.1372432-1.0640944l-5-6c-.1959066-.2177862-.4750662-.3421563-.768-.3421563s-.5720934.1243701-.768.3421563l-5 6c-.24826022.2980576-.30175214.7127992-.13724319 1.0640944.16450896.3512951.51733667.5757602.90524319.5759056h2v6h-6c-1.6568542.0000001-2.99999987 1.3431458-2.99999987 3s1.34314567 2.9999999 2.99999987 3h2.132l-2.706 4.058c-1.51041367.3013189-2.54727443 1.6974466-2.39918206 3.2304865.14809238 1.5330398 1.43302021 2.7048817 2.97318206 2.7115135h54c1.6568542 0 3-1.3431458 3-3s-1.3431458-3-3-3h-2.132l2.706-4.058c1.4080716-.2744815 2.4247684-1.5074254 2.426-2.942zm-14-11h-.865l2.865-3.438 2.865 3.438h-.865c-.5522847 0-1 .4477153-1 1v7h-2v-7c0-.5522847-.4477153-1-1-1zm-18 4h-.865l2.865-3.438 2.865 3.438h-.865c-.5522847 0-1 .4477153-1 1v3h-2v-3c0-.5522847-.4477153-1-1-1zm-18-4h-.865l2.865-3.438 2.865 3.438h-.865c-.5522847 0-1 .4477153-1 1v7h-2v-7c0-.5522847-.4477153-1-1-1zm-8 11c0-.5522847.44771525-1 1-1h54c.5522847 0 1 .4477153 1 1s-.4477153 1-1 1h-54c-.55228475 0-1-.4477153-1-1zm42.868 7 2.667-4h2.6l-2.667 4zm-29.736-4-2.667 4h-2.6l2.667-4zm2.4 0h2.6l-2.667 4h-2.6zm5 0h2.6l-2.667 4h-2.6zm5 0h2.6l-2.667 4h-2.6zm5 0h2.6l-2.667 4h-2.6zm5 0h2.6l-2.667 4h-2.6zm5 0h2.6l-2.667 4h-2.6zm-32.4 0-2.667 4h-2.6l2.667-4zm47.868 7c0 .5522847-.4477153 1-1 1h-54c-.55228475 0-1-.4477153-1-1s.44771525-1 1-1h54c.5522847 0 1 .4477153 1 1zm-8.132-3 2.667-4h2.6l-2.667 4z"/><path id="Shape" d="m19 21c.0071635 6.0721626 4.9278374 10.9928365 11 11 .323 0 .632-.018.932-.047 5.6882027-.4884591 10.0593772-5.2438698 10.068-10.953.0801769-4.3013462-1.451118-8.4771835-4.293-11.707-.3223417-.32160133-.8212438-.38483773-1.2136295-.15382889s-.5791695.69792843-.4543705 1.13582889c.357 1.249.824 4.185-.007 5.288-.244577.3152486-.6354072.4807454-1.032.437-.915 0-1.141-.367-1.226-.5-.684-1.107.067-3.942 1.121-6.049 1.2181808-2.23429853 1.2098822-4.93622644-.022-7.163-.7954228-1.39403151-2.2681796-2.26407218-3.873-2.288-.3601077.00210782-.6912706.19767343-.867.512-.1759515.31583971-.170235.70151385.015 1.012.112.187 1.037 1.877-.855 3.769-1.2413515 1.13624887-2.2106951 2.53762714-2.836 4.1-1.1509749-1.17289579-2.6129657-1.992707-4.214-2.363-.354112-.08880635-.7284778.0224192-.9766557.29016823-.248178.26774904-.3307225.64946532-.2153443.99583177.5511521 2.1125593.5439156 4.3320795-.021 6.441-.6043466 2.0294413-.9504089 4.126982-1.03 6.243zm7.374 7.081c-.7846621-1.1574581-1.0897285-2.5741711-.851-3.952.7036406.561679 1.5766734.868668 2.477.871.5522847 0 1-.4477153 1-1 0-.013 0-.613.094-1.429.6724523.9279419 1.760525 1.4629921 2.906 1.429.8778461-.0020559 1.7303973-.2942085 2.425-.831.223 1.61.277 3.894-.816 5.36-.8860882 1.056476-2.2368529 1.607037-3.609 1.471-1.4412056-.0414297-2.7812195-.7506097-3.626-1.919zm-4.4-12.838c.469515-1.8616832.5918924-3.7939576.361-5.7 1.2142361.5600865 2.1816799 1.5449584 2.72 2.769.1586613.4589124.6240589.7375286 1.1034953.6606216.4794365-.076907.8343399-.4871088.8415047-.9726216 0-2.586 1.761-4.347 2.707-5.293 1.1706418-1.07203744 1.8103149-2.60483891 1.749-4.191.2846769.22918415.5267153.50676662.715.82.8737524 1.6358174.8469454 3.60556645-.071 5.217-.445.892-2.592 5.47-1.032 7.994.636016.9863851 1.7619019 1.5443361 2.932 1.453 1.0244603.0411841 2.0048667-.4188011 2.628-1.233.5376389-.7975851.8338101-1.7333195.853-2.695 1.0097754 2.1694855 1.528437 4.5350469 1.519 6.928-.0002104 2.4394393-.9942823 4.7735042-2.753 6.464.4384187-2.2415593.3393791-4.5551087-.289-6.751-.1171398-.3920126-.4612643-.673126-.8687672-.7096911-.4075029-.0365652-.7961757.1787945-.9812328.5436911-.416959.8050647-1.2072591 1.349802-2.108 1.453-1.958 0-2-2.88-2-3 .0004339-.4641918-.3186234-.8676531-.7704163-.9742238-.451793-.1065707-.9175238.1117718-1.1245837.5272238-.5899554 1.3282914-.9419722 2.7498979-1.04 4.2-.4881165-.2909439-.8915048-.7046754-1.17-1.2-.1806396-.3623554-.5619533-.5800272-.9658208-.551336s-.7505796.2980829-.8781792.682336c-.7311916 1.8924791-.7866486 3.9793577-.157 5.908-1.8433249-1.6964715-2.8927344-4.0868332-2.894-6.592.0816647-1.9519762.4075352-3.8860341.97-5.757z"/></g></g></svg>