<svg xmlns="http://www.w3.org/2000/svg" width="69.18" height="69.179" viewBox="0 0 69.18 69.179">
    <defs>
        <linearGradient id="linear-gradient" x1=".5" x2=".5" y2="1" gradientUnits="objectBoundingBox">
            <stop offset="0" stop-color="#374757"/>
            <stop offset="1" stop-color="#7594af"/>
        </linearGradient>
        <style>
            .cls-1{fill:url(#linear-gradient)}
        </style>
    </defs>
    <g id="_003-security">
        <path id="Path_2212" d="M31.695 37.547v-6.694a11.158 11.158 0 0 1 22.316 0v6.695h6.695v-6.695a17.853 17.853 0 0 0-35.706 0v6.695z" class="cls-1" transform="translate(1.779 .389)"/>
        <circle id="Ellipse_119" cx="5.5" cy="5.5" r="5.5" class="cls-1" transform="translate(29.325 48.379)"/>
        <path id="Path_2213" d="M64.748 37h-42.4A3.347 3.347 0 0 0 19 40.347v22.316a3.347 3.347 0 0 0 3.347 3.347h42.4a3.347 3.347 0 0 0 3.353-3.347V40.347A3.347 3.347 0 0 0 64.748 37zM61.4 58.2a1.116 1.116 0 0 1-2.232 0v-4.463a1.116 1.116 0 0 0-1.116-1.116h-3.346V58.2a1.116 1.116 0 0 1-2.232 0v-5.579H41.227a7.811 7.811 0 1 1 0-2.232h16.826a3.347 3.347 0 0 1 3.347 3.348z" class="cls-1" transform="translate(1.084 3.168)"/>
        <path id="Path_2214" fill="#fff" d="M55.3 13.914l-.131-.087a11.371 11.371 0 0 1-5.069-9.48A3.347 3.347 0 0 0 46.748 1H11.042a3.347 3.347 0 0 0-3.347 3.347 11.371 11.371 0 0 1-5.074 9.484l-.131.087A3.347 3.347 0 0 0 1 16.7c0 29.121 25.976 39.1 26.4 39.472a3.365 3.365 0 0 0 2.995 0c.357-.315 26.4-10.507 26.4-39.473a3.347 3.347 0 0 0-1.495-2.785zm-26.4 1.591a2.232 2.232 0 1 1 2.232-2.232 2.232 2.232 0 0 1-2.237 2.232zm7.811 34.643v-7.4l6.368-6.368a1.116 1.116 0 0 0 .327-.789v-5.739a4.463 4.463 0 1 0-2.232 0v5.275L34.8 41.5a1.116 1.116 0 0 0-.327.789v9.261c-1.946 1.124-2.466 1.307-4.463 2.328v-36.3a4.463 4.463 0 1 0-2.232 0v36.29c-1.994-1.019-2.516-1.2-4.463-2.328v-9.256a1.116 1.116 0 0 0-.327-.789l-6.368-6.368v-5.275a4.463 4.463 0 1 0-2.232 0v5.737a1.116 1.116 0 0 0 .327.789l6.368 6.368v7.4A40.018 40.018 0 0 1 3.232 16.7a1.116 1.116 0 0 1 .5-.928l.132-.087A13.6 13.6 0 0 0 9.926 4.347a1.116 1.116 0 0 1 1.116-1.116h35.706a1.116 1.116 0 0 1 1.116 1.116 13.6 13.6 0 0 0 6.068 11.336l.131.087a1.116 1.116 0 0 1 .5.928 40.018 40.018 0 0 1-17.857 33.45zm5.579-22.369a2.232 2.232 0 1 1 2.232-2.232 2.232 2.232 0 0 1-2.237 2.232zm-26.779 0a2.232 2.232 0 1 1 2.232-2.232 2.232 2.232 0 0 1-2.238 2.232z" transform="translate(-1 -1)"/>
    </g>
</svg>
