<svg height="511pt" viewBox="-28 0 511 511.9997" width="511pt" xmlns="http://www.w3.org/2000/svg"><path d="m451.847656 243.859375-1.113281-6.1875h-165.796875v15.039063h73.488281l1.191407 51.066406-44.316407 23.722656-21.359375 99.257812 36.691406 43.84375c-23.523437 13.015626-49.347656 21.425782-76.339843 24.738282l-5.410157-50.363282-67.242187-38.632812-81.492187 7.015625-21.726563 22.050781c-11.480469-11.367187-21.707031-24.074218-30.410156-37.929687l103.128906-45.546875 4.484375-45.863282-17.886719-26.640624v-26.71875h126.898438v-15.039063h-39.203125v-88.382813c4.671875 1.84375 15.832031 5.847657 30.042968 8.269532 22.015626 3.75 45.53125 2.5625 65.246094-7.921875 24.230469-12.886719 39.785156-37.671875 46.222656-73.671875l.949219-5.324219-4.742187-2.59375c-1.832032-1.003906-45.398438-24.382813-86.78125-6.769531-21.707032 9.238281-38.402344 27.839844-49.824219 55.410156.289063-36.445312-8.972656-64.980469-27.632813-85.007812l-11.003906 10.253906c18.050782 19.367187 25.800782 48.882812 23.078125 87.789062-30.820312-.050781-66.753906-8.679687-87.558593-32.015625-17.15625-19.25-23-46.902343-17.398438-82.246093 12.074219-.960938 42.699219-1.433594 67.703125 14.65625l8.136719-12.648438c-36.53125-23.503906-81.582032-16.597656-83.480469-16.289062l-5.222656.839843-.972657 5.199219c-8.03125 42.832031-1.277343 76.664062 20.066407 100.558594 23.683593 26.519531 62.992187 36.832031 98.132812 36.992187v92.902344h-205.148437l-1.109375 6.1875c-2.757813 15.324219-3.882813 30.972656-3.59375 44.363281.234375 28.003906 3.21875 45.949219 10.65625 65.375 30.113281 94.214844 116.742187 156.484375 211.464843 158.328125 142.488282 3.578125 254.949219-124.785156 229.183594-268.066406zm-169.679687-168.707031c27.355469-11.699219 57.320312-1.226563 68.867187 3.777344-6.082031 28.136718-18.617187 47.429687-37.3125 57.394531-28.386718 15.140625-64.320312 5.425781-78.464844.542969 9.84375-31.855469 25.605469-52.605469 46.910157-61.714844zm-142.039063 234.820312-3.105468 31.75-95.007813 41.964844c-7.082031-13.433594-12.492187-24.28125-16.527344-34.765625-9.859375-31-12.363281-64.078125-7.558593-96.210937h104.765624v31.296874zm188.410156 27.5 46.328126-24.800781-1.398438-59.960937h64.0625c1.914062 10.789062 2.886719 21.464843 2.886719 31.816406 0 71.96875-36.449219 137.640625-97.828125 176.921875l-32.398438-38.710938zm-221.570312 90.394532 71.265625-6.136719 56.515625 32.46875 4.414062 41.132812c-3.652343.714844-7.628906 1.613281-11.175781 1.613281-49.648437 0-98.09375-18.738281-137.445312-52.410156zm0 0"/><path d="m398.804688 209.09375c17.269531 0 31.320312-14.050781 31.320312-31.320312 0-4.445313-1.347656-12.539063-13.019531-31.472657-6.941407-11.261719-12.449219-18.453125-18.300781-26.332031-5.574219 7.503906-11.214844 14.832031-18.304688 26.332031-11.671875 18.933594-13.019531 27.027344-13.019531 31.472657 0 17.269531 14.050781 31.320312 31.324219 31.320312zm0-63.480469c8.628906 12.820313 16.28125 26.816407 16.28125 32.160157 0 8.976562-7.304688 16.28125-16.28125 16.28125-8.980469 0-16.285157-7.304688-16.285157-16.28125 0-5.34375 7.652344-19.339844 16.285157-32.160157zm0 0"/><path d="m54.058594 159.523438c17.273437 0 31.324218-14.050782 31.324218-31.320313 0-4.445313-1.347656-12.539063-13.019531-31.472656-6.941406-11.261719-12.449219-18.453125-18.304687-26.328125-5.609375 7.550781-11.28125 14.941406-18.300782 26.328125-11.671874 18.933593-13.019531 27.027343-13.019531 31.472656 0 17.269531 14.050781 31.320313 31.320313 31.320313zm.003906-63.480469c8.628906 12.808593 16.28125 26.804687 16.28125 32.15625 0 8.980469-7.304688 16.285156-16.285156 16.285156-8.976563 0-16.28125-7.304687-16.28125-16.285156 0-5.339844 7.652344-19.339844 16.285156-32.15625zm0 0"/><path d="m248.035156 311.789062h-15.039062v-15.039062h15.039062zm-25.066406 0h-15.039062v-15.039062h15.039062zm0 0"/></svg>