<svg xmlns="http://www.w3.org/2000/svg" width="69.178" height="69.178" viewBox="0 0 69.178 69.178">
    <defs>
        <linearGradient id="linear-gradient" x1=".5" x2=".5" y2="1" gradientUnits="objectBoundingBox">
            <stop offset="0" stop-color="#374757"/>
            <stop offset="1" stop-color="#7594af"/>
        </linearGradient>
        <style>
            .cls-2{fill:#fff}.cls-3{fill:#1896de}
        </style>
    </defs>
    <g id="_002-outgoing-call">
        <path id="Path_2207" fill="url(#linear-gradient)" d="M68.378 46.755L50.525 32.25a1.116 1.116 0 0 0-1.82.866v6.695H38.663A25.692 25.692 0 0 0 13 65.474a1.116 1.116 0 0 0 2.018.656 26.057 26.057 0 0 1 21.009-10.7h12.679v6.695a1.116 1.116 0 0 0 1.82.866l17.852-14.504a1.116 1.116 0 0 0 0-1.732z" transform="translate(.388 2.589)"/>
        <g id="Group_1756">
            <path id="Path_2208" d="M48.122 36.109a3.794 3.794 0 0 0-5.356 0 10.916 10.916 0 0 1-15.429 0l-5.668-5.673a10.935 10.935 0 0 1 0-15.438 3.794 3.794 0 0 0 0-5.356l-7.562-7.568a3.876 3.876 0 0 0-5.356 0 26.562 26.562 0 0 0 0 37.505l9.449 9.456a26.525 26.525 0 0 0 37.483 0 3.794 3.794 0 0 0 0-5.356zM54.1 47.455a24.289 24.289 0 0 1-34.325 0L10.328 38a24.324 24.324 0 0 1 0-34.347 1.562 1.562 0 0 1 2.2 0l7.558 7.564a1.562 1.562 0 0 1 0 2.2 13.166 13.166 0 0 0 0 18.6l5.669 5.674a13.151 13.151 0 0 0 18.585 0 1.562 1.562 0 0 1 2.2 0l7.56 7.561a1.562 1.562 0 0 1 0 2.2z" class="cls-2" transform="translate(-1.001 -1.001)"/>
            <path id="Path_2209" d="M50.432 6.973H30.347A3.354 3.354 0 0 0 27 10.32v21.222a1.116 1.116 0 0 0 1.756.915l10.586-7.414a1.106 1.106 0 0 1 .639-.2h10.451a3.353 3.353 0 0 0 3.347-3.347V10.323a3.347 3.347 0 0 0-3.347-3.35zm1.116 14.518a1.116 1.116 0 0 1-1.116 1.116H39.975a3.334 3.334 0 0 0-1.92.6L29.232 29.4V10.323a1.116 1.116 0 0 1 1.116-1.116h20.084a1.116 1.116 0 0 1 1.116 1.116z" class="cls-2" transform="translate(2.009 -.309)"/>
            <path id="Path_2210" d="M46.505 11.977H33.116a1.116 1.116 0 1 0 0 2.232h13.39a1.116 1.116 0 1 0 0-2.232z" class="cls-3" transform="translate(2.588 .27)"/>
            <path id="Path_2211" d="M46.505 16.981H33.116a1.116 1.116 0 1 0 0 2.232h13.39a1.116 1.116 0 1 0 0-2.232z" class="cls-3" transform="translate(2.588 .85)"/>
        </g>
    </g>
</svg>
